<svg width="179" height="59" fill="none" xmlns="http://www.w3.org/2000/svg"><g clip-path="url(#clip0)"><path d="M118.47 19.816l-9.516 38.161h15.407l9.905-39.76-15.796 1.599zm50.884-1.662c-4.596-.448-11.782.959-15.343 3.643-.065-1.278-.323-2.556-.647-3.771l-13.66 1.662c.518 3.771 0 7.926-1.359 13.551l-6.15 24.738h15.407l6.28-25.313c1.553-2.173 4.013-3.643 6.085-3.643 2.59 0 3.172 1.853 2.395 4.922l-5.955 24.034h15.407l6.603-26.144c1.748-7.031-.582-12.912-9.063-13.68z" fill="#fff"/><path d="M136.791 7.415c0-4.091-3.625-7.415-8.222-7.415-4.661 0-8.61 3.324-8.61 7.415s3.82 7.415 8.351 7.415c4.726.064 8.481-3.324 8.481-7.415z" fill="#FC0"/><path d="M99.826 18.601L94.97 29.724a209.524 209.524 0 00-4.79 12.017l-.194-23.14h-13.92L64.48 41.933l1.23-23.843-15.343 1.918 3.107 38.033h13.595s10.294-20.519 11.2-22.948l.13 22.884h13.918l22.982-39.376H99.826zm-66.033-.959a18.373 18.373 0 00-8.804 2.046 73.466 73.466 0 003.107-14.894c.065-1.15.13-2.301.065-3.452L11.976 3.324c.195 2.557-.194 6.584-2.265 15.277L1.942 50.434C1.554 51.97.712 54.845 0 55.932A57.349 57.349 0 0019.68 59c5.05 0 9.064-.895 13.142-3.26 6.992-4.091 11.33-11.378 13.142-18.41 3.302-13.231-2.136-19.688-12.17-19.688zm-4.078 20.392c-1.748 7.287-4.079 10.547-7.963 10.547a6.51 6.51 0 01-3.625-.895l4.272-17.45c1.23-1.215 2.849-1.855 4.532-1.919 3.431 0 4.661 1.918 2.784 9.717z" fill="#fff"/><path d="M147.796 4.602c-.323-.191-.647-.255-1.035-.255-.324 0-.713.128-1.101.383-.388.256-.906.703-1.424 1.47l-1.878 8.694h-3.495l1.877-8.757a9.27 9.27 0 00.259-2.11c0-.575-.065-1.087-.194-1.534l3.237-1.278c.129.255.194.575.259.958.064.384.064.831.064 1.215a12.203 12.203 0 011.813-1.47c.647-.384 1.295-.576 1.942-.576.259 0 .453 0 .583.064.129.064.388.128.582.256l-1.489 2.94zm11.588 6.776c-.064.448-.129.959-.064 1.47.064.512.129.96.323 1.215l-3.042 1.214c-.13-.255-.324-.511-.389-.83a2.546 2.546 0 01-.194-.96c-.518.448-1.1.832-1.748 1.151a4.777 4.777 0 01-2.136.511c-1.036 0-1.878-.255-2.46-.703-.583-.511-.842-1.15-.842-1.981 0-.256 0-.512.065-.895.065-.32.129-.767.194-1.215l1.813-8.501 3.625-.64-1.813 8.502c-.064.32-.129.703-.194 1.023-.065.32-.065.575-.065.767 0 .32.065.511.259.703.195.192.389.256.583.256.259 0 .518-.064.842-.192a5.92 5.92 0 00.841-.511c.259-.192.518-.384.712-.64.195-.255.389-.447.518-.639l1.813-8.565 3.561-.703-2.202 10.163z" fill="#FC0"/></g><defs><clipPath id="clip0"><path fill="#fff" d="M0 0h179v59H0z"/></clipPath></defs></svg>